HIERARCHY
ROOT Hips
{
	OFFSET 0.000000 0.000000 0.000000
	CHANNELS 6 Xposition Yposition Zposition Zrotation Yrotation Xrotation 
	JOINT LHipJoint
	{
		OFFSET 0.000000 0.000000 0.000000
		CHANNELS 3 Zrotation Yrotation Xrotation
		JOINT LeftUpLeg
		{
			OFFSET 1.363060 -1.794630 0.839290
			CHANNELS 3 Zrotation Yrotation Xrotation
			JOINT LeftLeg
			{
				OFFSET 2.448110 -6.726130 0.000000
				CHANNELS 3 Zrotation Yrotation Xrotation
				JOINT LeftFoot
				{
					OFFSET 2.562200 -7.039590 0.000000
					CHANNELS 3 Zrotation Yrotation Xrotation
					JOINT LeftToeBase
					{
						OFFSET 0.157640 -0.433110 2.322550
						CHANNELS 3 Zrotation Yrotation Xrotation
						End Site
						{
							OFFSET 0.000000 0.000000 0.000000
						}
					}
				}
			}
		}
	}
	JOINT RHipJoint
	{
		OFFSET 0.000000 0.000000 0.000000
		CHANNELS 3 Zrotation Yrotation Xrotation
		JOINT RightUpLeg
		{
			OFFSET -1.305520 -1.794630 0.839290
			CHANNELS 3 Zrotation Yrotation Xrotation
			JOINT RightLeg
			{
				OFFSET -2.542530 -6.985550 0.000000
				CHANNELS 3 Zrotation Yrotation Xrotation
				JOINT RightFoot
				{
					OFFSET -2.568260 -7.056230 0.000000
					CHANNELS 3 Zrotation Yrotation Xrotation
					JOINT RightToeBase
					{
						OFFSET -0.164730 -0.452590 2.363150
						CHANNELS 3 Zrotation Yrotation Xrotation
						End Site
						{
							OFFSET 0.000000 0.000000 0.000000
						}
					}
				}
			}
		}
	}
	JOINT LowerBack
	{
		OFFSET 0.000000 0.000000 0.000000
		CHANNELS 3 Zrotation Yrotation Xrotation
		JOINT Spine
		{
			OFFSET 0.028270 2.035590 -0.193380
			CHANNELS 3 Zrotation Yrotation Xrotation
			JOINT Spine1
			{
				OFFSET 0.056720 2.048850 -0.042750
				CHANNELS 3 Zrotation Yrotation Xrotation
				JOINT Neck
				{
					OFFSET 0.000000 0.000000 0.000000
					CHANNELS 3 Zrotation Yrotation Xrotation
					JOINT Neck1
					{
						OFFSET -0.054170 1.746240 0.172020
						CHANNELS 3 Zrotation Yrotation Xrotation
						JOINT Head
						{
							OFFSET 0.104070 1.761360 -0.123970
							CHANNELS 3 Zrotation Yrotation Xrotation
							End Site
							{
								OFFSET 0.000000 0.000000 0.000000
							}
						}
					}
				}
				JOINT LeftShoulder
				{
					OFFSET 0.000000 0.000000 0.000000
					CHANNELS 3 Zrotation Yrotation Xrotation
					JOINT LeftArm
					{
						OFFSET 3.362410 1.200890 -0.311210
						CHANNELS 3 Zrotation Yrotation Xrotation
						JOINT LeftForeArm
						{
							OFFSET 4.983000 -0.000000 -0.000000
							CHANNELS 3 Zrotation Yrotation Xrotation
							JOINT LeftHand
							{
								OFFSET 3.483560 -0.000000 -0.000000
								CHANNELS 3 Zrotation Yrotation Xrotation
								JOINT LeftFingerBase
								{
									OFFSET 0.000000 0.000000 0.000000
									CHANNELS 3 Zrotation Yrotation Xrotation
									JOINT LeftHandIndex1
									{
										OFFSET 0.715260 -0.000000 -0.000000
										CHANNELS 3 Zrotation Yrotation Xrotation
										End Site
										{
											OFFSET 0.000000 0.000000 0.000000
										}
									}
								}
								JOINT LThumb
								{
									OFFSET 0.000000 0.000000 0.000000
									CHANNELS 3 Zrotation Yrotation Xrotation
									End Site
									{
										OFFSET 0.000000 0.000000 0.000000
									}
								}
							}
						}
					}
				}
				JOINT RightShoulder
				{
					OFFSET 0.000000 0.000000 0.000000
					CHANNELS 3 Zrotation Yrotation Xrotation
					JOINT RightArm
					{
						OFFSET -3.136600 1.374050 -0.404650
						CHANNELS 3 Zrotation Yrotation Xrotation
						JOINT RightForeArm
						{
							OFFSET -5.241900 -0.000000 -0.000000
							CHANNELS 3 Zrotation Yrotation Xrotation
							JOINT RightHand
							{
								OFFSET -3.444170 -0.000000 -0.000000
								CHANNELS 3 Zrotation Yrotation Xrotation
								JOINT RightFingerBase
								{
									OFFSET 0.000000 0.000000 0.000000
									CHANNELS 3 Zrotation Yrotation Xrotation
									JOINT RightHandIndex1
									{
										OFFSET -0.622530 -0.000000 -0.000000
										CHANNELS 3 Zrotation Yrotation Xrotation
										End Site
										{
											OFFSET 0.000000 0.000000 0.000000
										}
									}
								}
								JOINT RThumb
								{
									OFFSET 0.000000 0.000000 0.000000
									CHANNELS 3 Zrotation Yrotation Xrotation
									End Site
									{
										OFFSET 0.000000 0.000000 0.000000
									}
								}
							}
						}
					}
				}
			}
		}
	}
}
MOTION
Frames: 6
Frame Time: 0.008333
1.617174 16.585984 -0.428992 -130.019349 82.231816 -109.091793 -9.358276 -1.712455 -1.223873 -14.264671 2.350909 -49.376574 -1.736575 1.406944 36.164750 2.526338 10.591277 -13.236631 -0.764900 0.000000 -4.708901 11.026532 -2.785201 -4.258906 2.030976 -12.924788 -11.525586 0.855600 -3.240155 38.180197 -0.360176 8.080807 24.721317 4.474200 -0.000000 -93.790000 -4.662984 -0.009719 7.657954 -2.398790 0.157547 -1.707380 -8.460248 0.094329 -0.316353 12.054273 3.264241 2.299317 -4.687451 -0.414898 2.232308 0.000000 0.000000 0.000000 -3.903127 0.026826 2.497782 -53.428928 15.314768 14.372484 -4.145909 -14.191777 -0.009028 -0.830995 4.060635 -0.026323 -0.106423 -0.086116 -0.000000 0.000000 0.000000 0.000000 0.000000 0.000000 0.000000 22.136221 3.890398 -0.781055 72.593487 26.203595 25.220568 1.626910 48.403480 0.003716 0.303858 11.176261 0.030502 0.005979 -0.264637 -0.000000 0.000000 0.000000 0.000000 0.000000 0.000000 0.000000 
1.791929 16.552790 -0.484009 -130.288873 82.495086 -109.804409 -9.257515 -1.621659 -1.482546 -14.805153 2.632157 -48.864851 -1.720123 1.534298 37.984636 2.572725 10.672070 -14.449470 -1.066300 0.000000 -4.805700 11.276072 -2.606250 -4.362609 1.009386 -13.410442 -12.108243 0.666415 -3.374252 40.642559 -0.550831 7.793797 26.369935 4.606500 -0.000000 -91.118300 -5.138472 0.058498 7.985922 -2.504511 0.236427 -1.647741 -8.485152 0.175961 -0.350204 11.821429 3.442349 2.551735 -4.711939 -0.417605 2.283684 0.000000 0.000000 0.000000 -4.127479 -0.110368 2.473899 -52.911526 14.800834 14.539171 -4.199685 -13.478583 -0.009571 -0.914301 4.244707 -0.030634 -0.107564 -0.084236 -0.000000 0.000000 0.000000 0.000000 0.000000 0.000000 0.000000 21.946690 3.988917 -0.895120 72.981628 26.084399 24.350884 1.597426 47.925048 0.001884 -0.260626 11.514174 -0.027201 0.009518 -0.266031 -0.000000 0.000000 0.000000 0.000000 0.000000 0.000000 0.000000 
1.965462 16.526235 -0.542130 -130.610832 82.767954 -110.519057 -9.155162 -1.515143 -1.719620 -15.382909 2.927849 -48.225987 -1.734161 1.622183 39.425861 2.632523 10.746379 -15.823874 -1.406900 -0.000000 -5.098500 11.499007 -2.409651 -4.435861 0.064489 -13.755703 -12.806279 0.487571 -3.500580 43.111806 -0.764612 6.964955 27.823304 4.398600 0.000000 -87.650600 -5.554225 0.139479 8.259941 -2.594837 0.326705 -1.593989 -8.495913 0.269201 -0.361904 11.485134 3.636004 2.810042 -4.743334 -0.420655 2.336218 0.000000 0.000000 0.000000 -4.386820 -0.197152 2.444020 -52.465346 13.996680 14.526459 -4.247162 -12.586404 -0.009843 -0.853020 4.437720 -0.029540 -0.108210 -0.080225 -0.000000 0.000000 0.000000 0.000000 0.000000 0.000000 0.000000 21.670337 4.086158 -1.017106 73.370254 25.928357 23.457066 1.569914 47.351375 0.000052 -0.847169 11.820547 -0.090509 0.013385 -0.265976 -0.000000 0.000000 0.000000 0.000000 0.000000 0.000000 0.000000 
2.137924 16.506452 -0.603848 -130.989141 83.035858 -111.240532 -9.057207 -1.397403 -1.929877 -15.967613 3.219732 -47.464434 -1.769657 1.673857 40.494817 2.706803 10.840762 -17.262837 -1.769200 0.000000 -5.561700 11.690740 -2.203279 -4.481633 -0.778379 -13.967181 -13.605197 0.320515 -3.622715 45.556087 -0.994006 5.590805 28.971820 3.810600 -0.000000 -83.601400 -5.898498 0.230130 8.479109 -2.667725 0.425847 -1.545292 -8.494044 0.371644 -0.348097 11.058090 3.838685 3.061544 -4.783018 -0.423979 2.386597 0.000000 0.000000 0.000000 -4.670806 -0.212410 2.409129 -52.105488 12.885507 14.305392 -4.283715 -11.531900 -0.009750 -0.599299 4.627048 -0.020338 -0.107902 -0.073814 -0.000000 0.000000 0.000000 0.000000 0.000000 0.000000 0.000000 21.327444 4.177858 -1.141929 73.731771 25.745205 22.563443 1.545818 46.699141 -0.001664 -1.426131 12.081135 -0.155517 0.017337 -0.264414 -0.000000 0.000000 0.000000 0.000000 0.000000 0.000000 0.000000 
2.309351 16.493534 -0.669618 -131.404668 83.280681 -111.951338 -8.971707 -1.274569 -2.108291 -16.523830 3.491402 -46.592473 -1.816760 1.693297 41.211589 2.793180 10.971349 -18.666673 -2.134700 0.000000 -6.147800 11.846031 -1.996420 -4.502680 -1.491090 -14.049130 -14.489149 0.164003 -3.743037 47.941279 -1.232408 3.715346 29.723058 2.852400 0.000000 -79.244100 -6.155171 0.326892 8.642333 -2.720551 0.530546 -1.504563 -8.483754 0.479375 -0.318875 10.556493 4.055413 3.307225 -4.831395 -0.427618 2.435618 0.000000 0.000000 0.000000 -4.988182 -0.200777 2.372821 -51.832988 11.560543 13.792202 -4.306643 -10.399701 -0.009270 -0.114192 4.803272 -0.000529 -0.106088 -0.065128 -0.000000 0.000000 0.000000 0.000000 0.000000 0.000000 0.000000 20.938092 4.271052 -1.259092 74.038539 25.527812 21.683546 1.526594 45.986007 -0.003153 -1.963741 12.283144 -0.217629 0.021058 -0.261438 -0.000000 0.000000 0.000000 0.000000 0.000000 0.000000 0.000000 
2.479711 16.487517 -0.739519 -131.889239 83.491254 -112.684474 -8.903830 -1.152019 -2.253211 -17.030208 3.724347 -45.622368 -1.866698 1.684398 41.602304 2.887049 11.147364 -19.943067 -2.485000 0.000000 -6.787300 11.963591 -1.796016 -4.503482 -2.062797 -14.009714 -15.443035 0.015604 -3.863632 50.237015 -1.473493 1.441468 30.008943 1.595200 0.000000 -74.847899 -6.322934 0.425455 8.754562 -2.753514 0.636941 -1.468516 -8.466364 0.588971 -0.267094 10.001069 4.275330 3.529077 -4.888500 -0.431354 2.478359 0.000000 0.000000 0.000000 -5.323964 -0.113769 2.334916 -51.651783 9.974958 13.030586 -4.309756 -9.213192 -0.008410 0.629711 4.936015 0.031788 -0.102058 -0.054242 -0.000000 0.000000 0.000000 0.000000 0.000000 0.000000 0.000000 20.526819 4.357393 -1.367371 74.270390 25.294842 20.843864 1.513603 45.225177 -0.004321 -2.429559 12.418177 -0.272043 0.024305 -0.257042 0.000000 0.000000 0.000000 0.000000 0.000000 0.000000 0.000000 
